<?xml version="1.0" encoding="UTF-8" standalone="no"?>
<svg
   width="210mm"
   height="250mm"
   viewBox="0 0 210 250"
   version="1.1"
   id="svg8"
   sodipodi:docname="yOniversity_FullLogo.svg"
   inkscape:version="1.2.1 (9c6d41e410, 2022-07-14)"
   xmlns:inkscape="http://www.inkscape.org/namespaces/inkscape"
   xmlns:sodipodi="http://sodipodi.sourceforge.net/DTD/sodipodi-0.dtd"
   xmlns="http://www.w3.org/2000/svg"
   xmlns:svg="http://www.w3.org/2000/svg"
   xmlns:rdf="http://www.w3.org/1999/02/22-rdf-syntax-ns#"
   xmlns:cc="http://creativecommons.org/ns#"
   xmlns:dc="http://purl.org/dc/elements/1.1/">
  <sodipodi:namedview
     id="namedview308"
     pagecolor="#505050"
     bordercolor="#eeeeee"
     borderopacity="1"
     inkscape:showpageshadow="0"
     inkscape:pageopacity="0"
     inkscape:pagecheckerboard="0"
     inkscape:deskcolor="#505050"
     inkscape:document-units="mm"
     showgrid="false"
     inkscape:zoom="0.914906"
     inkscape:cx="126.24248"
     inkscape:cy="560.71334"
     inkscape:window-width="3840"
     inkscape:window-height="2054"
     inkscape:window-x="-11"
     inkscape:window-y="-11"
     inkscape:window-maximized="1"
     inkscape:current-layer="svg8" />
  <defs
     id="defs2" />
  <metadata
     id="metadata5">
    <rdf:RDF>
      <cc:Work
         rdf:about="">
        <dc:format>image/svg+xml</dc:format>
        <dc:type
           rdf:resource="http://purl.org/dc/dcmitype/StillImage" />
      </cc:Work>
    </rdf:RDF>
  </metadata>
  <g
     id="g536"
     transform="matrix(0.6839477,0,0,0.6839477,33.18549,-2.8031651)">
    <g
       id="layer1"
       style="fill:#000000">
      <path
         style="fill:#000000;stroke-width:0.264583"
         d="m 103.8058,265.31227 c -1.60579,-0.79448 -2.58249,-1.95664 -4.222913,-5.02481 C 93.215947,248.37907 79.147607,233.80515 55.1437,214.25125 30.61948,194.27349 22.19394,187.32249 17.30949,183.03836 2.50514,170.05348 -7.18072,158.63742 -14.01274,146.12102 -24.32413,127.23033 -27.58678,102.9658 -22.37327,83.943242 c 1.27126,-4.638453 2.51391,-7.865575 4.88915,-12.696941 7.43132,-15.115687 19.49738,-26.785367 34.86387,-33.718568 14.33287,-6.466836 29.31163,-7.693652 45.5062,-3.727123 11.40409,2.7932 23.599227,9.993888 33.049127,19.514035 2.97333,2.995436 6.555723,7.24743 8.111953,9.628193 0.46108,0.705374 0.91637,1.284636 1.01175,1.287251 0.0954,0.0026 0.93605,-1.037043 1.86816,-2.31035 7.05834,-9.642078 16.1203,-17.399441 26.58229,-22.755396 7.75092,-3.96804 14.32893,-6.103817 22.75684,-7.388796 4.1027,-0.625526 13.93594,-0.621401 18.20471,0.0076 15.37387,2.265464 28.73588,9.277373 40.21667,21.104263 5.59009,5.758627 9.41599,11.153788 12.94757,18.258271 3.31967,6.678228 5.52672,13.628914 6.66893,21.002664 0.68476,4.420443 0.69154,17.492645 0.0116,22.328355 -1.90093,13.51891 -5.57244,24.16088 -12.10146,35.07625 -4.73681,7.91912 -9.93452,14.51058 -17.71309,22.4629 -8.50841,8.69844 -13.23871,12.74716 -46.83125,40.08337 -20.97309,17.06704 -34.10162,29.59169 -41.6934,39.77559 -2.17503,2.91767 -4.42024,6.46816 -5.66772,8.9627 -1.16837,2.33635 -1.9416,3.30018 -3.24941,4.05037 -1.66469,0.9549 -2.07334,1.0082 -3.25341,0.42435 z m 2.96412,-4.73032 c 2.78191,-7.64761 7.25232,-15.23531 14.04498,-23.83878 9.82307,-12.44173 21.83641,-24.52697 51.67151,-51.98074 21.83387,-20.09118 31.58714,-31.49976 38.34833,-44.85676 8.04701,-15.89722 10.5428,-35.40018 6.46703,-50.535411 -3.64167,-13.52314 -12.57433,-25.585303 -24.89487,-33.616605 -8.97195,-5.848485 -20.34548,-9.8622 -31.42987,-11.0916 -3.41359,-0.378611 -10.93647,-0.380857 -14.15521,-0.0042 -15.35805,1.797073 -28.59866,8.511171 -38.01312,19.275836 l -1.93486,2.212361 1.21726,1.353894 c 0.81396,0.90532 1.92279,2.791577 3.34667,5.693127 3.07835,6.272969 5.84638,10.348804 12.60364,18.558463 4.55856,5.538373 6.4752,7.677823 12.44399,13.890625 7.87104,8.19281 10.79428,12.13521 14.3215,19.31458 3.50924,7.14278 5.14594,13.22289 5.44855,20.24062 0.43525,10.09407 -2.43968,19.63661 -8.76836,29.10417 -3.38505,5.06393 -5.67024,7.65719 -15.62121,17.72708 -14.35034,14.52183 -17.82757,19.17373 -22.64067,30.28913 -1.20863,2.79122 -2.59337,4.63588 -3.48004,4.63588 -0.29361,0 -1.00758,-0.14194 -1.5866,-0.31542 -1.31811,-0.39492 -1.90855,-1.25659 -3.6035,-5.25888 -2.392613,-5.64969 -4.318273,-8.93093 -8.363423,-14.25093 -3.17455,-4.17501 -5.57743,-6.83075 -14.46117,-15.98298 -4.662157,-4.80306 -9.491947,-9.96728 -10.732877,-11.47605 -6.42483,-7.81155 -10.79038,-16.37623 -12.51357,-24.55012 -0.80466,-3.81687 -0.99753,-10.63225 -0.41782,-14.76398 0.83669,-5.96331 2.41603,-10.83818 5.46344,-16.86376 3.75356,-7.42184 6.58702,-11.02602 17.095467,-21.74561 4.47719,-4.567152 8.45699,-8.914055 10.53854,-11.510675 4.04312,-5.043565 9.87957,-13.664753 11.31344,-16.711395 1.40808,-2.991874 2.717193,-5.186733 3.824833,-6.412762 l 0.91883,-1.017032 -1.05828,-1.260305 c -1.70979,-2.036219 -6.904413,-6.96398 -9.051073,-8.58614 C 79.820067,46.203789 62.47141,42.307252 44.56036,45.342938 37.02561,46.619981 28.51957,49.598168 21.83201,53.300742 4.21625,63.053717 -7.00694,79.793313 -8.78621,98.968388 c -0.39934,4.303692 -0.13239,12.274182 0.56913,16.992492 2.66546,17.92773 10.44788,32.68494 26.08957,49.47164 4.74727,5.09478 11.6023,11.75588 21.25939,20.65795 30.16306,27.80481 41.050027,38.82566 51.046977,51.6747 6.04613,7.77107 9.919403,14.30841 12.640813,21.33529 0.50723,1.30969 1.23146,2.70858 1.60941,3.10865 l 0.68719,0.7274 0.60549,-0.56882 c 0.33302,-0.31286 0.80469,-1.11644 1.04816,-1.78574 z m -0.80458,-36.84521 c 0.22811,-0.44113 0.95083,-2.36834 1.60604,-4.2827 1.48415,-4.33635 3.61657,-9.02926 6.21023,-13.66712 3.14591,-5.62538 9.06258,-15.1526 11.74843,-18.91771 7.99361,-11.20571 13.57811,-22.95773 14.78923,-31.12249 0.74225,-5.00387 0.48918,-10.98932 -0.79043,-18.6948 -1.81051,-10.90236 -5.56206,-19.26116 -13.95047,-31.08286 -2.5286,-3.56353 -7.2403,-11.385595 -10.85923,-18.027747 -2.31539,-4.249669 -4.62938,-9.283123 -5.77372,-12.559162 -1.09704,-3.140622 -2.42917,-5.863672 -3.24187,-6.626762 -0.64211,-0.602921 -0.70806,-0.613748 -1.17341,-0.192619 -0.80305,0.726755 -1.77027,2.730675 -3.08309,6.387698 -1.34468,3.745732 -4.254113,9.962157 -6.810713,14.552082 -3.11307,5.588955 -10.19928,17.48255 -11.90175,19.97604 -2.36808,3.46838 -5.30241,8.4996 -6.694137,11.47781 -3.59412,7.69122 -5.94726,18.41504 -6.01494,27.41158 -0.0317,4.21055 0.73963,8.4732 2.44242,13.49811 1.8955,5.59355 3.67639,9.26559 8.597417,17.72708 1.48105,2.54662 3.44736,5.99943 4.36957,7.67292 0.92221,1.67349 3.25037,5.60768 5.1737,8.74265 6.90889,11.26131 9.456863,16.22423 12.004123,23.38157 1.51521,4.25743 2.20325,5.60247 2.70674,5.2913 0.12711,-0.0786 0.41774,-0.50375 0.64586,-0.94487 z m -1.53257,-22.69935 c -0.36093,-0.28391 -0.8704,-1.08758 -1.13216,-1.78594 -0.8416,-2.24532 -3.351993,-6.19844 -8.871363,-13.96974 -5.3548,-7.53957 -7.85449,-13.76634 -7.74089,-19.28262 0.15208,-7.38404 1.67462,-10.96594 9.87391,-23.22905 3.482083,-5.20791 4.301373,-6.65177 6.161273,-10.85817 0.50821,-1.14939 0.83605,-1.5536 1.36844,-1.68722 1.32653,-0.33294 1.78866,0.17918 3.75505,4.16122 1.03208,2.09001 2.60989,4.81204 3.50625,6.04897 3.14324,4.33749 7.29412,10.4697 8.40209,12.41264 2.22365,3.89935 3.59917,8.99075 3.58024,13.25194 -0.0274,6.16849 -2.50133,12.16594 -8.6206,20.89863 -3.53313,5.04207 -5.71833,8.71311 -6.93789,11.65541 -1.22736,2.96111 -1.953,3.47836 -3.34435,2.38393 z"
         id="path24" />
    </g>
    <g
       transform="matrix(0.35277776,0,0,-0.35277776,-36.032768,348.71408)"
       id="g10"
       style="fill:#000000">
      <g
         transform="scale(0.1)"
         id="g12"
         style="fill:#000000">
        <path
           id="path14"
           style="fill:#000000;fill-opacity:1;fill-rule:nonzero;stroke:none"
           d="m 245.559,245.078 c 0,24.004 16.613,38.781 48.004,38.781 36.925,0 112.628,-44.32 112.628,-44.32 38.774,0 75.7,66.481 164.329,286.191 20.304,57.239 40.617,99.7 49.847,120.008 L 347.105,1332.59 c 0,0 0,0 0,1.84 l -11.074,25.85 c -31.39,75.7 -48.008,97.86 -88.629,97.86 v 9.24 h 201.254 v -9.24 c -40.621,0 -36.926,-25.84 0,-125.55 L 668.375,739.898 893.629,1332.59 c 36.93,96.02 38.773,121.86 9.23,125.55 h -7.379 v 9.24 h 127.4 v -9.24 c -42.47,0 -59.087,-27.69 -99.704,-125.55 C 829.008,1099.95 734.844,865.461 640.68,630.969 c 0,0 -22.16,-44.309 -46.16,-114.481 C 491.121,256.16 433.887,178.609 348.953,178.609 c -66.469,0 -103.394,24.012 -103.394,66.469" />
        <path
           id="path16"
           style="fill:#000000;fill-opacity:1;fill-rule:nonzero;stroke:none"
           d="m 2092.67,784.219 v 561.301 c 0,64.62 -5.54,59.08 -42.47,75.69 l -7.38,1.85 v 5.55 l 123.7,38.77 h 18.47 v -147.71 c 110.78,99.69 238.17,156.93 361.88,156.93 168.02,0 219.72,-101.54 219.72,-280.64 V 784.219 c 0,-99.707 7.38,-125.559 49.85,-125.559 v -9.23 h -192.02 v 9.23 c 42.46,0 49.85,25.852 49.85,125.559 v 402.511 c 0,145.86 -46.16,228.95 -197.56,228.95 -110.78,0 -214.18,-38.78 -291.72,-107.09 V 784.219 c 0,-99.707 7.38,-125.559 49.85,-125.559 v -9.23 h -192.02 v 9.23 c 42.46,0 49.85,25.852 49.85,125.559" />
        <path
           id="path18"
           style="fill:#000000;fill-opacity:1;fill-rule:nonzero;stroke:none"
           d="m 2985.48,1657.55 c 0,40.61 22.16,62.77 60.93,62.77 40.62,0 62.78,-22.16 62.78,-62.77 0,-38.77 -22.16,-60.93 -62.78,-60.93 -38.77,0 -60.93,22.16 -60.93,60.93 z M 2954.1,649.43 v 9.23 c 42.46,0 49.85,25.852 49.85,125.559 v 561.301 c 0,64.62 -5.54,59.08 -42.47,75.69 l -7.38,1.85 v 5.55 l 123.7,38.77 h 18.46 V 784.219 c 0,-99.707 7.39,-125.559 49.86,-125.559 v -9.23 H 2954.1" />
        <path
           id="path20"
           style="fill:#000000;fill-opacity:1;fill-rule:nonzero;stroke:none"
           d="m 3208.07,1458.14 v 9.24 h 201.25 v -9.24 c -40.62,0 -36.92,-25.84 0,-125.55 l 219.72,-592.692 225.26,592.692 c 36.92,96.02 38.77,121.86 9.23,125.55 h -7.39 v 9.24 h 127.4 v -9.24 c -42.47,0 -59.08,-27.69 -99.7,-125.55 -94.17,-232.64 -188.33,-467.129 -282.5,-701.621 h -14.77 l -278.8,701.621 c 0,0 0,0 0,1.84 l -11.08,25.85 c -31.38,75.7 -48,97.86 -88.62,97.86" />
        <path
           id="path22"
           style="fill:#000000;fill-opacity:1;fill-rule:nonzero;stroke:none"
           d="m 4315.07,1450.74 c 145.86,0 212.33,-90.45 212.33,-230.79 v -1.3 l -0.05,-1.15 c -0.21,-2.29 -0.57,-4.47 -1.07,-6.57 -4.16,-18.14 -18.2,-30.15 -39.5,-33.43 l -437.59,-14.77 c 22.16,184.63 116.31,288.01 265.88,288.01 z m 38.75,-755.138 c -223.38,0 -332.33,177.238 -306.48,450.508 h 564.98 c 0,212.34 -105.23,330.49 -293.56,330.49 -238.18,0 -372.98,-158.78 -372.98,-443.13 0,-251.091 120.03,-393.271 332.36,-393.271 129.23,0 249.26,51.699 330.49,142.18 l -9.24,7.391 c -53.52,-60.938 -142.16,-94.168 -245.57,-94.168" />
        <path
           id="path24-8"
           style="fill:#000000;fill-opacity:1;fill-rule:nonzero;stroke:none"
           d="m 4768.44,649.43 v 9.23 c 42.47,0 49.86,25.852 49.86,125.559 v 561.301 c 0,64.62 -5.54,59.08 -42.47,75.69 l -7.39,1.85 v 5.55 l 123.71,38.77 h 18.47 v -169.87 c 66.46,114.47 155.09,179.09 249.25,179.09 112.63,0 145.87,-24 145.87,-64.62 0,-27.69 -16.62,-44.31 -44.32,-44.31 -55.39,0 -120.01,40.62 -175.4,40.62 -66.47,0 -129.25,-44.31 -175.4,-123.71 V 784.219 c 0,-99.707 7.38,-125.559 49.84,-125.559 v -9.23 h -192.02" />
        <path
           id="path26"
           style="fill:#000000;fill-opacity:1;fill-rule:nonzero;stroke:none"
           d="m 5393.54,734.371 c 3.69,3.688 7.38,7.391 9.23,11.078 z m -1.85,-1.851 3.7,79.39 h 7.38 c 3.69,-5.531 5.54,-12.922 9.23,-18.461 31.39,-59.078 96.01,-103.39 180.94,-121.859 -1.84,-5.539 86.78,-11.07 96.02,-11.07 120.01,0 186.48,64.621 186.48,179.089 0,70.172 -73.86,136.629 -204.95,186.481 -158.79,60.93 -247.41,145.86 -247.41,240.04 0,134.78 92.32,210.47 256.64,210.47 70.16,0 153.25,-36.92 230.8,-101.54 l -3.69,-73.86 h -7.39 c -24,81.24 -136.63,155.1 -219.72,155.1 -118.16,0 -184.63,-57.24 -184.63,-158.79 0,-73.86 86.78,-147.71 240.02,-206.8 140.33,-53.54 217.87,-131.089 217.87,-216.019 0,-149.55 -96.01,-234.48 -267.72,-234.48 -118.17,0 -223.41,33.23 -293.57,92.309" />
        <path
           id="path28"
           style="fill:#000000;fill-opacity:1;fill-rule:nonzero;stroke:none"
           d="m 6140.49,1657.55 c 0,40.61 22.16,62.77 60.93,62.77 40.62,0 62.77,-22.16 62.77,-62.77 0,-38.77 -22.15,-60.93 -62.77,-60.93 -38.77,0 -60.93,22.16 -60.93,60.93 z M 6109.1,649.43 v 9.23 c 42.47,0 49.86,25.852 49.86,125.559 v 561.301 c 0,64.62 -5.55,59.08 -42.47,75.69 l -7.39,1.85 v 5.55 l 123.71,38.77 h 18.46 V 784.219 c 0,-99.707 7.39,-125.559 49.85,-125.559 v -9.23 H 6109.1" />
        <path
           id="path30"
           style="fill:#000000;fill-opacity:1;fill-rule:nonzero;stroke:none"
           d="m 6946.52,756.559 c -88.58,-73.918 -155.13,-116.368 -240.02,-116.368 -129.23,0 -155.13,31.379 -155.13,190.2 0,191.999 -1.79,601.899 -1.79,601.899 h -138.5 v 11.06 c 83.09,9.26 145.87,55.39 175.36,131.11 3.59,7.09 5.39,15.79 8.89,24.58 0.09,0.39 0.19,0.57 0.19,0.76 0.09,0.19 0.09,0.29 0.19,0.47 l 31.38,118.17 h 14.75 v -251.08 h 282.56 v -35.07 H 6641.84 V 813.75 c 0,-110.789 18.53,-132.91 110.79,-132.91 73.93,0 125.54,29.492 188.31,83.101 l 5.58,-7.382" />
        <path
           id="path32"
           style="fill:#000000;fill-opacity:1;fill-rule:nonzero;stroke:none"
           d="m 6972.68,245.078 c 0,24.004 16.62,38.781 48.01,38.781 36.92,0 112.63,-44.32 112.63,-44.32 38.77,0 75.69,66.481 164.32,286.191 20.31,57.239 40.62,99.7 49.86,120.008 l -273.27,686.852 c 0,0 0,0 0,1.84 l -11.08,25.85 c -31.38,75.7 -48,97.86 -88.62,97.86 v 9.24 h 201.25 v -9.24 c -40.62,0 -36.93,-25.84 0,-125.55 l 219.72,-592.692 225.26,592.692 c 36.92,96.02 38.77,121.86 9.23,125.55 h -7.39 v 9.24 H 7750 v -9.24 c -42.47,0 -59.08,-27.69 -99.7,-125.55 -94.17,-232.64 -188.33,-467.129 -282.5,-701.621 0,0 -22.16,-44.309 -46.15,-114.481 -103.4,-260.328 -160.64,-337.879 -245.57,-337.879 -66.47,0 -103.4,24.012 -103.4,66.469" />
        <path
           id="path34"
           style="fill:#000000;fill-opacity:1;fill-rule:nonzero;stroke:none"
           d="m 1499.87,1125.05 c 3.34,0.06 5.52,-2.28 7.03,-5.95 4.98,-12.08 11.25,-23.47 19.14,-34.01 7.24,-9.64 13.93,-19.69 20.64,-29.7 3.87,-5.75 7.61,-11.6 10.59,-17.89 4.16,-8.83 6.83,-18.02 8.24,-27.74 0.75,-5.26 1.7,-10.479 1.15,-15.69 -0.99,-9.48 -2.43,-18.898 -6.04,-27.859 -3.6,-8.91 -8.17,-17.34 -13.02,-25.539 -5.7,-9.633 -12.6,-18.551 -18.89,-27.844 -7.57,-11.156 -14.61,-22.617 -19.27,-35.379 -1.07,-2.937 -2.22,-6.359 -6.45,-5.98 -3.84,0.359 -5.51,2.902 -6.77,6.359 -2.75,7.613 -7.17,14.391 -11.45,21.184 -10.94,17.34 -24.44,32.957 -34.29,51.027 -5.18,9.512 -10.24,19.16 -12.19,29.922 -1.1,6.09 -3.11,12.168 -2.06,18.578 0.6,16.391 4.42,31.731 12.82,46.211 9.14,15.75 19.31,30.74 29.6,45.7 6.06,8.81 11,18.24 14.65,28.34 1.11,3.1 3.23,6.2 6.57,6.26" />
        <path
           id="path36"
           style="fill:#000000;fill-opacity:1;fill-rule:nonzero;stroke:none"
           d="m 1449.05,1044.75 c -8.4,-14.48 -12.22,-29.82 -12.82,-46.211 -1.05,-6.41 0.96,-12.488 2.06,-18.578 1.95,-10.762 7.01,-20.41 12.19,-29.922 9.85,-18.07 23.35,-33.687 34.29,-51.027 4.28,-6.793 8.7,-13.571 11.45,-21.184 1.26,-3.457 2.93,-6 6.77,-6.359 4.23,-0.379 5.38,3.043 6.45,5.98 4.66,12.762 11.7,24.223 19.27,35.379 6.29,9.293 13.19,18.211 18.89,27.844 4.85,8.199 9.42,16.629 13.02,25.539 3.61,8.961 5.05,18.379 6.04,27.859 0.55,5.211 -0.4,10.43 -1.15,15.69 -1.41,9.72 -4.08,18.91 -8.24,27.74 -2.98,6.29 -6.72,12.14 -10.59,17.89 -6.71,10.01 -13.4,20.06 -20.64,29.7 -7.89,10.54 -14.16,21.93 -19.14,34.01 -1.51,3.67 -3.69,6.01 -7.03,5.95 -3.34,-0.06 -5.46,-3.16 -6.57,-6.26 -3.65,-10.1 -8.59,-19.53 -14.65,-28.34 -10.29,-14.96 -20.46,-29.95 -29.6,-45.7" />
        <path
           id="path38"
           style="fill:#000000;fill-opacity:1;fill-rule:nonzero;stroke:none"
           d="m 1906.83,1212.56 -0.08,-4.38 c -0.5,-23.36 -3.87,-46.39 -10.1,-68.45 -3.14,-11.25 -6.94,-22.25 -11.37,-32.72 -4.43,-10.35 -9.71,-20.85 -15.71,-31.27 -3.28,-5.55 -6.31,-10.5 -9.36,-15.11 -1.18,-1.93 -2.47,-3.77 -3.73,-5.65 l -1.22,-1.76 c -1.52,-2.36 -3.16,-4.59 -4.8,-6.85 l -0.32,-0.43 c -6.66,-9.25 -14.22,-18.86 -22.42,-28.45 -6.92,-8.11 -14.57,-16.54 -24.79,-27.24 -0.49,-0.5 -0.99,-1.02 -1.48,-1.52 -7.37,-7.64 -15.57,-15.769 -24.97,-24.839 -9.63,-9.25 -19.4,-18.27 -27.62,-25.86 l -28.18,-25.929 -14.15,-13.102 -1.68,-1.559 c -4.15,-3.929 -8.3,-7.8 -12.35,-11.679 l -27.96,-26.293 c -9.33,-8.778 -18.65,-17.52 -28.05,-26.438 l -26.92,-27.66 c -15.98,-16.582 -34.59,-36.519 -51.51,-58.351 l -0.64,-0.739 -0.31,-0.472 -0.16,-0.348 -10.65,-13.57 -0.11,-0.192 c -5.54,-7.719 -10.39,-14.918 -14.87,-22.019 -5.16,-8.219 -9.46,-15.828 -13.17,-23.258 -4.02,-8.082 -7.55,-16.383 -10.41,-24.57 l -0.12,-0.364 c -0.11,-0.347 -0.23,-0.668 -0.43,-1.136 -0.07,-0.274 -0.2,-0.551 -0.42,-1.012 -0.17,-0.32 -0.32,-0.629 -0.6,-1.149 -0.15,-0.269 -0.35,-0.543 -0.62,-0.921 -0.91,-1.391 -2.05,-2.559 -3.34,-3.579 -0.15,-0.152 -0.31,-0.269 -0.51,-0.39 -0.15,0.121 -0.34,0.258 -0.5,0.39 -1.25,0.989 -2.39,2.188 -3.38,3.641 -0.19,0.289 -0.39,0.59 -0.66,1.059 -0.15,0.281 -0.3,0.589 -0.55,1.058 -0.15,0.321 -0.27,0.68 -0.47,1.102 -0.1,0.359 -0.28,0.789 -0.42,1.25 -2.87,8.199 -6.39,16.488 -10.47,24.621 -3.6,7.316 -7.92,14.918 -13.12,23.258 -4.43,7.011 -9.29,14.242 -14.93,22.101 l -0.16,0.188 -0.54,0.64 -10.26,13.403 -0.84,1.008 c -16.92,21.832 -35.53,41.73 -51.52,58.378 l -27.06,27.731 c -8.67,8.281 -17.44,16.5 -26.19,24.699 l -29.69,27.883 c -4.31,4.16 -8.7,8.269 -13.13,12.43 l -15.08,13.98 -28.13,25.91 c -2.84,2.598 -5.86,5.399 -8.98,8.289 -5.96,5.539 -12.31,11.5 -18.65,17.571 -9.91,9.519 -18.57,18.179 -26.44,26.359 -10.07,10.54 -17.95,19.21 -24.8,27.24 -8.2,9.59 -15.75,19.15 -22.46,28.4 l -0.62,0.9 c -1.53,2.1 -3.02,4.23 -4.5,6.43 l -0.9,1.37 c -1.39,1.99 -2.75,4 -4.05,6.1 -3.05,4.58 -6.06,9.52 -9.32,15.05 -5.96,10.35 -11.25,20.85 -15.71,31.23 -4.46,10.58 -8.31,21.59 -11.36,32.76 -6.23,22.06 -9.63,45.06 -10.15,68.41 l -0.08,4.34 c 0,0.99 0,1.91 0.05,2.86 l 0.03,5.8 0.35,8.66 0.36,5.96 c 0.03,0.85 0.11,1.72 0.18,2.5 l 0.48,4.16 c 1.22,10.85 3.45,21.75 6.58,32.35 6.23,21.01 16.1,41.03 29.35,59.57 6.46,9.01 13.71,17.62 21.67,25.61 7.88,7.96 16.42,15.37 25.42,21.99 8.7,6.39 18.33,12.38 28.57,17.79 10.15,5.33 20.53,9.99 30.83,13.82 21.55,8.01 44.04,13.1 66.85,15.17 7.05,0.63 14.22,0.99 21.3,0.99 9.34,0 18.66,-0.58 27.86,-1.68 7.21,-0.87 14.34,-2.05 21.37,-3.59 11.9,-2.62 23.53,-6.18 34.71,-10.68 10.84,-4.35 21.85,-10.04 32.67,-16.82 10.38,-6.54 20.26,-14.15 29.42,-22.64 4.16,-3.8 8.31,-8.03 13.13,-13.32 1.33,-1.5 2.63,-3.02 3.88,-4.54 0.73,-0.87 1.45,-1.77 2.19,-2.59 0.55,-0.67 1.06,-1.34 1.57,-1.99 -0.48,-0.37 -0.91,-0.68 -1.33,-1 l -0.44,-0.34 c -0.74,-0.63 -1.45,-1.3 -1.95,-1.89 l -1.14,-1.22 -0.82,-1.02 c -2.16,-2.69 -4.12,-5.74 -6.08,-9.32 l -1.32,-2.42 -2.39,-4.83 -1.07,-2.34 c -0.25,-0.55 -0.5,-1.09 -0.74,-1.63 -0.18,-0.4 -0.36,-0.8 -0.52,-1.2 l -4.44,-8.33 v -0.01 l -1.96,-2.91 -7.27,-10.81 c -9.89,-16.09 -21.46,-30.79 -33.46,-45.25 -11.78,-14.2 -25.49,-26.55 -38.29,-39.77 -16.52,-17.05 -32.68,-34.39 -44.89,-54.93 -15.85,-26.63 -26.35,-55.11 -28.26,-86.25 -1.9,-30.71 5.32,-59.49 19.71,-86.57 12.61,-23.761 29.18,-44.558 48.17,-63.398 10.25,-10.192 20.23,-20.602 29.93,-31.262 l 16.29,-16.41 c 1.69,-1.898 3.38,-3.801 5.06,-5.719 18.6,-21.312 31.19,-38.91 40.63,-56.929 v -0.633 l 0.64,-0.629 8.18,-19.031 0.31,-0.95 0.13,-0.07 c 0.93,-2.32 2.27,-5.18 3.99,-7.848 1.02,-1.492 2.07,-2.742 3.18,-3.781 0.42,-0.199 0.85,-0.379 1.29,-0.551 2.39,-0.961 5.18,-1.609 8.39,-1.789 l 0.18,0.051 0.55,0.32 c 0.57,0.297 1.01,0.668 1.49,1.02 1.57,1.219 2.95,2.777 4.27,4.769 2.12,3.141 3.58,6.54 4.9,9.879 l 7.64,17.789 0.16,0.161 0.15,0.582 c 9.53,18.257 22.18,36.05 41.07,57.64 1.2,1.391 2.41,2.77 3.63,4.149 l 17.21,17.531 c 2.11,2.168 4.24,4.328 6.43,6.437 9.63,9.321 19.44,18.442 28.63,28.18 20.51,21.731 38.34,45.41 50,73.172 15.55,36.99 16.75,74.66 4.59,112.82 -9.13,28.6 -23.96,53.91 -43.71,76.46 -11.86,13.54 -24.84,25.99 -37.09,39.17 -4.57,4.91 -9,9.94 -13.36,15.05 -0.07,0.09 -0.15,0.17 -0.21,0.25 -3.06,3.61 -6.07,7.23 -9.04,10.9 -6.17,7.42 -12.41,15 -18.3,22.6 l -5.41,7.18 c -1.12,1.44 -2.18,2.97 -3.2,4.46 -0.67,0.91 -4.47,6.35 -4.47,6.35 -0.46,0.67 -0.89,1.36 -1.37,2.07 l -1.14,1.8 -0.97,1.5 c -1.26,1.92 -2.51,3.84 -3.73,5.76 -2.16,3.61 -4.2,7.2 -5.91,10.38 l -0.51,1.26 c -0.98,2.35 -1.93,4.7 -2.98,6.97 l -1.13,2.46 -2.39,4.83 -1.26,2.27 c -1.95,3.56 -3.96,6.62 -6.11,9.35 l -1.02,1.27 -0.82,0.86 c -0.59,0.66 -1.3,1.29 -1.97,1.92 l -0.54,0.42 c -0.35,0.28 -0.75,0.6 -1.22,0.91 0.56,0.71 1.07,1.41 1.6,2.03 0.71,0.87 1.46,1.74 2.17,2.56 1.29,1.56 2.59,3.12 3.95,4.62 4.75,5.21 9.02,9.56 13.13,13.32 9.13,8.49 19.05,16.1 29.39,22.64 10.86,6.78 21.81,12.47 32.71,16.82 11.13,4.5 22.81,8.06 34.68,10.68 7.34,1.61 14.79,2.82 22.32,3.7 8.9,1.03 17.91,1.57 26.93,1.57 7.06,0 14.27,-0.36 21.31,-0.99 22.8,-2.07 45.26,-7.16 66.81,-15.17 10.33,-3.83 20.72,-8.49 30.87,-13.86 10.26,-5.4 19.86,-11.36 28.56,-17.75 9.01,-6.62 17.55,-13.98 25.43,-21.99 7.88,-7.94 15.16,-16.56 21.62,-25.61 13.28,-18.54 23.15,-38.59 29.35,-59.57 3.17,-10.6 5.41,-21.5 6.62,-32.39 l 0.48,-4.03 c 0.07,-0.74 0.1,-1.54 0.15,-2.31 0.03,-0.67 0.4,-6.12 0.4,-6.12 l 0.35,-8.69 0.03,-5.89 c 0,-0.95 0.04,-1.87 0,-2.78 z m -409.32,128.09 0.52,0.78 0.82,1.09 c 0.35,0.44 0.74,0.83 1.14,1.26 0.26,0.21 0.54,0.45 0.8,0.65 0.16,0.11 0.31,0.21 0.45,0.29 l 0.29,0.21 0.06,-0.05 0.16,-0.04 0.39,-0.16 c 0.36,-0.23 0.74,-0.59 1.05,-0.86 0.43,-0.43 0.82,-0.82 1.3,-1.46 l 0.59,-0.66 0.69,-1.02 c 1.57,-2.39 3.07,-5.09 4.51,-8.34 l 0.93,-2.13 1.85,-4.61 0.91,-2.44 c 0.75,-2.03 1.41,-4.11 2.11,-6.3 0.43,-1.14 0.88,-2.27 1.3,-3.32 1.44,-3.7 2.99,-7.41 4.63,-11.14 0.06,-0.13 0.12,-0.28 0.2,-0.42 4.91,-10.8 10.5,-21.85 16.6,-32.8 5.92,-10.66 12.19,-21.19 18.23,-31.43 3.39,-5.74 6.84,-11.57 10.24,-17.4 1.94,-2.58 3.86,-5.17 5.77,-7.78 9.38,-12.8 17.93,-26.08 25.73,-39.8 2.3,-4.05 4.5,-8.16 6.56,-12.29 0,0 0.03,-0.04 0.06,-0.15 0.08,-0.12 0.15,-0.25 0.21,-0.39 0.06,-0.08 0.13,-0.21 0.16,-0.32 1.8,-3.74 8.97,-19.44 14.81,-41.46 8.37,-38.22 8.35,-64.78 6.71,-80.8 -0.01,-0.15 -0.04,-0.33 -0.04,-0.51 -0.81,-5.99 -1.95,-11.97 -3.49,-17.96 -0.02,-0.04 -0.02,-0.09 -0.05,-0.14 -5.75,-19.801 -14.69,-38.078 -24.45,-55.988 -8.84,-16.262 -19.08,-31.742 -30.25,-46.614 -0.01,-0.019 -0.03,-0.046 -0.04,-0.058 -0.21,-0.301 -0.42,-0.61 -0.64,-0.91 -1.05,-1.5 -2.08,-3 -3.12,-4.52 -1.86,-3.18 -3.82,-6.461 -5.91,-9.89 l -3.26,-5.231 -6.41,-10.289 c -12.43,-20.09 -25.27,-41.961 -34.99,-65.59 l -6.67,-18.969 c -0.07,-0.191 -0.1,-0.39 -0.18,-0.582 -0.87,-2.738 -1.97,-5.879 -3.53,-8.507 -0.79,-1.25 -1.57,-2.231 -2.2,-2.77 l -0.31,-0.242 -0.13,0.121 -0.15,0.121 c -0.74,0.656 -1.48,1.598 -2.2,2.77 -1.32,2.16 -2.22,4.628 -2.97,6.789 l -6.9,19.629 0.08,0.14 -0.78,1.93 c -9.64,23.32 -22.45,45.101 -34.84,65.199 l -9.67,15.43 c -3.41,5.64 -6.35,10.672 -9,15.363 -0.7,1.219 -1.4,2.449 -2.08,3.68 -0.03,0.058 -0.08,0.136 -0.12,0.207 -2.39,4.293 -4.73,8.633 -7,13.011 -2.24,4.071 -4.52,8.102 -6.95,12.051 -9.56,15.528 -18.47,31.34 -25.71,47.938 -0.33,0.711 -0.63,1.422 -0.95,2.152 -0.08,0.207 -0.17,0.438 -0.27,0.641 -0.69,1.609 -1.37,3.238 -2.03,4.878 -0.27,0.64 -0.51,1.29 -0.77,1.93 -0.15,0.38 -0.3,0.78 -0.45,1.16 -1.52,3.91 -2.91,7.88 -4.16,11.92 -0.04,0.11 -0.09,0.22 -0.12,0.33 -0.06,0.2 -0.12,0.41 -0.18,0.6 -0.03,0.09 -0.06,0.18 -0.08,0.27 -0.06,0.17 -0.12,0.36 -0.17,0.53 -0.1,0.3 -0.19,0.61 -0.27,0.91 -0.14,0.44 -0.27,0.88 -0.39,1.32 -1.3,4.41 -2.39,8.83 -3.27,13.27 -0.01,0.07 -0.03,0.13 -0.04,0.19 -1.39,6.75 -2.41,13.54 -3.16,20.39 -0.1,15.74 1.59,36.92 7.41,63.9 5.8,22.03 12.94,37.75 14.74,41.5 0.04,0.09 0.09,0.22 0.16,0.32 0.05,0.12 0.11,0.26 0.2,0.38 0.04,0.1 0.06,0.15 0.06,0.15 2.05,4.13 4.25,8.23 6.52,12.3 7.12,12.56 14.84,24.74 23.27,36.54 0.48,0.77 0.97,1.54 1.44,2.3 5.08,9.01 10.45,18.11 15.68,26.94 6.03,10.2 12.27,20.73 18.18,31.35 6.15,11 11.79,22.22 16.84,33.3 0,0.01 0.02,0.04 0.03,0.06 4.11,9.35 7.63,18.68 10.52,27.83 l 0.93,2.05 c 1.42,3.21 2.91,5.91 4.51,8.27 z m 465.74,-108.42 -0.32,7.13 c -0.07,1.14 -0.1,2.24 -0.22,3.45 l -0.47,5.33 c -1.42,14.22 -4.08,28.44 -7.96,42.4 -3.87,13.67 -8.94,27.23 -15.12,40.23 -1.03,2.11 -2.08,4.19 -3.14,6.3 l -1.72,3.34 c -1.21,2.23 -2.47,4.47 -3.72,6.7 l -1.54,2.75 -5.63,9.16 -1.95,2.91 c -1.3,1.99 -2.63,3.95 -4.01,5.9 -8.19,11.68 -17.44,22.77 -27.43,32.99 -9.98,10.16 -20.87,19.63 -32.4,28.17 -11.88,8.74 -24.21,16.38 -36.63,22.66 -12.62,6.37 -26.14,11.66 -40.16,15.78 -20.88,6.07 -42.66,9.17 -64.77,9.17 -6.69,0 -13.47,-0.27 -20.09,-0.87 -21.01,-1.74 -41.9,-6.37 -62.32,-13.8 -6.12,-2.23 -12.21,-4.7 -18.23,-7.43 -24.65,-11.09 -47.38,-25.82 -67.64,-43.77 -9.95,-8.77 -19.24,-18.25 -27.66,-28.12 -0.33,-0.4 -0.67,-0.81 -0.99,-1.2 -4.37,-5.47 -8.65,-10.77 -12.67,-16.53 l -3.25,-4.34 -0.84,-1.2 -0.67,-0.95 c -0.19,0.35 -0.43,0.67 -0.66,0.97 l -1.8,2.59 c -1.21,1.76 -2.47,3.58 -3.76,5.34 -4.16,5.59 -8.15,10.62 -12.15,15.32 -8.38,9.83 -17.66,19.28 -27.65,28.12 -20.3,17.95 -43.03,32.68 -67.64,43.77 -6.6,2.99 -13.27,5.68 -20,8.07 -7.43,2.48 -15.01,4.58 -22.78,6.28 -11.51,2.49 -23.09,4.76 -34.7,5.69 -18.71,1.51 -37.58,1.2 -56.22,-1.57 -4.22,-0.65 -8.68,-0.54 -12.71,-1.82 -12.08,-3.89 -24.59,-6.2 -36.53,-10.86 -20.56,-8 -39.91,-18.09 -57.97,-30.66 -7.98,-5.54 -15.26,-11.9 -22.62,-18.22 -0.85,-0.76 -1.7,-1.52 -2.55,-2.27 -2.91,-2.71 -5.76,-5.48 -8.53,-8.32 -10.03,-10.26 -19.28,-21.35 -27.46,-32.99 -1.49,-2.15 -2.95,-4.31 -4.4,-6.46 l -1.64,-2.5 -5.64,-9.18 -1.57,-2.83 c -1.21,-2.14 -2.43,-4.29 -3.64,-6.53 l -1.45,-2.91 c -1.14,-2.19 -2.27,-4.42 -3.33,-6.65 -3.49,-7.34 -6.63,-14.87 -9.4,-22.5 -2.14,-5.87 -4.06,-11.79 -5.73,-17.73 -3.88,-13.88 -6.54,-28.14 -7.95,-42.4 l -0.5,-5.41 c -0.12,-1.29 -0.17,-2.5 -0.2,-3.8 l -0.31,-6.82 -0.13,-5.13 -0.04,-5.25 0.08,-7.06 c 0.05,-1.1 0.05,-2.19 0.09,-3.33 l 0.23,-5.13 c 1.3,-27.93 6.03,-55.48 14.17,-81.73 4.15,-13.28 9.22,-26.35 15.01,-38.83 5.77,-12.3 12.23,-24.17 19.83,-36.31 3.93,-6.23 7.63,-11.83 11.33,-17 1.45,-2.13 2.98,-4.2 4.5,-6.23 l 1.53,-2.04 c 2.03,-2.78 4.12,-5.45 6.23,-8.12 7.99,-10.1 16.81,-20.36 26.34,-30.52 8.99,-9.668 18.44,-19.16 28.04,-28.168 8.78,-8.242 18.35,-16.813 29.23,-26.211 9.01,-7.789 18.74,-15.942 29.7,-25.039 l 29.77,-24.172 14.73,-12.059 14.73,-12.191 29.67,-24.168 c 4.93,-4.012 9.83,-8.012 14.73,-11.981 4.98,-4.043 9.95,-8.05 14.93,-12.05 l 28.64,-25.032 c 10.57,-9.277 19.44,-17.16 28.13,-25.347 4.63,-4.352 9.21,-8.703 13.59,-13.051 4.43,-4.352 8.82,-8.852 12.9,-13.082 l 13.63,-14.5 c 4.81,-5.527 10.5,-12.059 15.8,-18.809 5.79,-7.398 10.6,-14.101 14.8,-20.48 4.5,-6.828 8.7,-14.199 12.46,-21.758 2.43,-5.121 6.18,-9.352 10.65,-11.91 0.71,-0.422 1.45,-0.82 2.2,-1.172 l 1.42,-0.602 c 0,0 2.23,-1.359 5.24,0.051 l 1.33,0.602 c 0.79,0.301 1.49,0.699 2.2,1.09 4.47,2.589 8.27,6.82 10.62,11.879 3.84,7.621 8.03,14.992 12.53,21.82 4.23,6.512 9.05,13.199 14.78,20.48 5.4,6.86 11.01,13.371 15.83,18.809 l 13.63,14.5 c 3.8,3.961 8.31,8.621 12.93,13.133 4.47,4.418 9.01,8.808 13.52,13 9.52,8.929 19.54,17.789 28.13,25.347 l 9.09,7.93 19.47,16.992 c 9.84,7.918 19.58,15.867 29.39,23.828 l 30.09,24.481 14.65,12.191 14.73,12.059 29.82,24.219 c 10.61,8.73 20.37,16.921 29.7,24.992 10.89,9.398 20.45,17.969 29.22,26.211 9.52,8.976 18.97,18.418 28.06,28.168 9.48,10.16 18.33,20.42 26.33,30.52 l 0.35,0.48 c 1.99,2.55 3.95,5.05 5.84,7.59 l 1.37,1.81 c 1.57,2.15 3.17,4.28 4.66,6.42 3.64,5.17 7.36,10.78 11.32,17.09 7.65,12.14 14.11,24.01 19.87,36.31 5.79,12.54 10.86,25.59 15.01,38.83 8.1,26.29 12.88,53.8 14.18,81.73 l 0.23,5.18 c 0,1.17 0.05,2.35 0.05,3.49 l 0.11,6.97 -0.16,10.38" />
      </g>
    </g>
  </g>
</svg>
